<svg xmlns="http://www.w3.org/2000/svg" width="24" height="24" viewBox="0 0 24 24"><g id="surface1"><path style=" stroke:none;fill-rule:nonzero;fill:rgb(66.666667%,66.666667%,66.666667%);fill-opacity:1;" d="M 21.511719 3.125 L 20.003906 3.125 L 20.003906 1.933594 C 20.003906 1.589844 19.722656 1.304688 19.378906 1.304688 C 19.035156 1.304688 18.753906 1.589844 18.753906 1.933594 L 18.753906 3.125 L 12.628906 3.125 L 12.628906 1.933594 C 12.628906 1.589844 12.347656 1.304688 12.003906 1.304688 C 11.660156 1.304688 11.378906 1.589844 11.378906 1.933594 L 11.378906 3.125 L 5.1875 3.125 L 5.1875 1.933594 C 5.1875 1.589844 4.90625 1.304688 4.5625 1.304688 C 4.21875 1.304688 3.9375 1.589844 3.9375 1.933594 L 3.9375 3.125 L 2.496094 3.125 C 1.117188 3.125 0 4.28125 0 5.65625 L 0 20.191406 C 0 21.574219 1.113281 22.695312 2.496094 22.695312 L 21.503906 22.695312 C 22.886719 22.695312 24 21.574219 24 20.199219 L 24 5.65625 C 24.007812 4.28125 22.886719 3.125 21.511719 3.125 Z M 22.757812 20.191406 C 22.757812 20.878906 22.207031 21.4375 21.519531 21.441406 L 2.496094 21.441406 C 1.808594 21.441406 1.25 20.886719 1.25 20.199219 L 1.25 5.65625 C 1.25 4.964844 1.808594 4.375 2.496094 4.375 L 3.9375 4.375 L 3.9375 5.28125 C 3.9375 5.625 4.21875 5.90625 4.5625 5.90625 C 4.90625 5.90625 5.1875 5.625 5.1875 5.28125 L 5.1875 4.375 L 11.378906 4.375 L 11.378906 5.28125 C 11.378906 5.625 11.660156 5.90625 12.003906 5.90625 C 12.347656 5.90625 12.628906 5.625 12.628906 5.28125 L 12.628906 4.375 L 18.753906 4.375 L 18.753906 5.28125 C 18.753906 5.625 19.035156 5.90625 19.378906 5.90625 C 19.722656 5.90625 20.003906 5.625 20.003906 5.28125 L 20.003906 4.375 L 21.511719 4.375 C 22.207031 4.375 22.757812 4.96875 22.757812 5.65625 Z M 22.757812 20.191406 "/><path style=" stroke:none;fill-rule:nonzero;fill:rgb(66.666667%,66.666667%,66.666667%);fill-opacity:1;" d="M 10.359375 8.441406 L 9.265625 8.441406 C 8.921875 8.441406 8.640625 8.722656 8.640625 9.066406 C 8.640625 9.410156 8.921875 9.691406 9.265625 9.691406 L 10.359375 9.691406 C 10.703125 9.691406 10.984375 9.410156 10.984375 9.066406 C 10.984375 8.722656 10.703125 8.441406 10.359375 8.441406 Z M 10.359375 8.441406 "/><path style=" stroke:none;fill-rule:nonzero;fill:rgb(66.666667%,66.666667%,66.666667%);fill-opacity:1;" d="M 14.710938 8.441406 L 13.617188 8.441406 C 13.273438 8.441406 12.992188 8.722656 12.992188 9.066406 C 12.992188 9.410156 13.273438 9.691406 13.617188 9.691406 L 14.710938 9.691406 C 15.054688 9.691406 15.335938 9.410156 15.335938 9.066406 C 15.335938 8.722656 15.058594 8.441406 14.710938 8.441406 Z M 14.710938 8.441406 "/><path style=" stroke:none;fill-rule:nonzero;fill:rgb(66.666667%,66.666667%,66.666667%);fill-opacity:1;" d="M 19.097656 8.441406 L 18.003906 8.441406 C 17.660156 8.441406 17.378906 8.722656 17.378906 9.066406 C 17.378906 9.410156 17.660156 9.691406 18.003906 9.691406 L 19.097656 9.691406 C 19.441406 9.691406 19.722656 9.410156 19.722656 9.066406 C 19.722656 8.722656 19.441406 8.441406 19.097656 8.441406 Z M 19.097656 8.441406 "/><path style=" stroke:none;fill-rule:nonzero;fill:rgb(66.666667%,66.666667%,66.666667%);fill-opacity:1;" d="M 10.359375 12.753906 L 9.265625 12.753906 C 8.921875 12.753906 8.640625 13.035156 8.640625 13.378906 C 8.640625 13.722656 8.921875 14.003906 9.265625 14.003906 L 10.359375 14.003906 C 10.703125 14.003906 10.984375 13.722656 10.984375 13.378906 C 10.984375 13.035156 10.703125 12.753906 10.359375 12.753906 Z M 10.359375 12.753906 "/><path style=" stroke:none;fill-rule:nonzero;fill:rgb(66.666667%,66.666667%,66.666667%);fill-opacity:1;" d="M 5.976562 12.753906 L 4.875 12.753906 C 4.53125 12.753906 4.25 13.035156 4.25 13.378906 C 4.25 13.722656 4.53125 14.003906 4.875 14.003906 L 5.96875 14.003906 C 6.3125 14.003906 6.59375 13.722656 6.59375 13.378906 C 6.59375 13.035156 6.320312 12.753906 5.976562 12.753906 Z M 5.976562 12.753906 "/><path style=" stroke:none;fill-rule:nonzero;fill:rgb(66.666667%,66.666667%,66.666667%);fill-opacity:1;" d="M 14.710938 12.753906 L 13.617188 12.753906 C 13.273438 12.753906 12.992188 13.035156 12.992188 13.378906 C 12.992188 13.722656 13.273438 14.003906 13.617188 14.003906 L 14.710938 14.003906 C 15.054688 14.003906 15.335938 13.722656 15.335938 13.378906 C 15.335938 13.035156 15.058594 12.753906 14.710938 12.753906 Z M 14.710938 12.753906 "/><path style=" stroke:none;fill-rule:nonzero;fill:rgb(66.666667%,66.666667%,66.666667%);fill-opacity:1;" d="M 19.097656 12.753906 L 18.003906 12.753906 C 17.660156 12.753906 17.378906 13.035156 17.378906 13.378906 C 17.378906 13.722656 17.660156 14.003906 18.003906 14.003906 L 19.097656 14.003906 C 19.441406 14.003906 19.722656 13.722656 19.722656 13.378906 C 19.722656 13.035156 19.441406 12.753906 19.097656 12.753906 Z M 19.097656 12.753906 "/><path style=" stroke:none;fill-rule:nonzero;fill:rgb(66.666667%,66.666667%,66.666667%);fill-opacity:1;" d="M 10.359375 17.003906 L 9.265625 17.003906 C 8.921875 17.003906 8.640625 17.285156 8.640625 17.628906 C 8.640625 17.972656 8.921875 18.253906 9.265625 18.253906 L 10.359375 18.253906 C 10.703125 18.253906 10.984375 17.972656 10.984375 17.628906 C 10.984375 17.285156 10.703125 17.003906 10.359375 17.003906 Z M 10.359375 17.003906 "/><path style=" stroke:none;fill-rule:nonzero;fill:rgb(66.666667%,66.666667%,66.666667%);fill-opacity:1;" d="M 5.976562 17.003906 L 4.875 17.003906 C 4.53125 17.003906 4.25 17.285156 4.25 17.628906 C 4.25 17.972656 4.53125 18.253906 4.875 18.253906 L 5.96875 18.253906 C 6.3125 18.253906 6.59375 17.972656 6.59375 17.628906 C 6.59375 17.285156 6.320312 17.003906 5.976562 17.003906 Z M 5.976562 17.003906 "/><path style=" stroke:none;fill-rule:nonzero;fill:rgb(66.666667%,66.666667%,66.666667%);fill-opacity:1;" d="M 14.710938 17.003906 L 13.617188 17.003906 C 13.273438 17.003906 12.992188 17.285156 12.992188 17.628906 C 12.992188 17.972656 13.273438 18.253906 13.617188 18.253906 L 14.710938 18.253906 C 15.054688 18.253906 15.335938 17.972656 15.335938 17.628906 C 15.335938 17.285156 15.058594 17.003906 14.710938 17.003906 Z M 14.710938 17.003906 "/></g></svg>
